<svg viewBox="0 0 460 242" fill="none" xmlns="http://www.w3.org/2000/svg">
    <path d="M-15.6432 167.008C-16.1165 166.724 -16.7309 166.877 -17.0154 167.35C-17.3 167.823 -17.147 168.438 -16.6736 168.722L-15.6432 167.008ZM469.105 97.1281C469.641 96.9946 469.967 96.4519 469.833 95.916L467.658 87.1829C467.525 86.647 466.982 86.3207 466.446 86.4542C465.91 86.5877 465.584 87.1304 465.717 87.6663L467.651 95.4291L459.888 97.3627C459.352 97.4962 459.026 98.0388 459.16 98.5747C459.293 99.1107 459.836 99.4369 460.372 99.3034L469.105 97.1281ZM-12.2673 171.109C-11.7752 171.36 -11.173 171.164 -10.9222 170.672C-10.6713 170.18 -10.8668 169.578 -11.3588 169.327L-12.2673 171.109ZM-2.3101 173.556C-2.81737 173.337 -3.40563 173.571 -3.62401 174.079C-3.84238 174.586 -3.60818 175.174 -3.10091 175.393L-2.3101 173.556ZM6.28374 179.135C6.8019 179.326 7.37688 179.061 7.568 178.543C7.75912 178.025 7.49399 177.45 6.97583 177.259L6.28374 179.135ZM16.4628 180.491C15.9358 180.326 15.3747 180.619 15.2095 181.146C15.0443 181.673 15.3376 182.234 15.8645 182.399L16.4628 180.491ZM25.5534 185.183C26.0877 185.323 26.6342 185.003 26.7739 184.469C26.9137 183.934 26.5938 183.388 26.0595 183.248L25.5534 185.183ZM35.8135 185.552C35.2732 185.438 34.7426 185.784 34.6285 186.324C34.5143 186.865 34.8599 187.395 35.4002 187.509L35.8135 185.552ZM45.2947 189.355C45.8398 189.443 46.3534 189.073 46.4417 188.528C46.5301 187.983 46.1597 187.469 45.6146 187.381L45.2947 189.355ZM55.5195 188.743C54.9707 188.681 54.4755 189.075 54.4134 189.624C54.3513 190.173 54.7458 190.668 55.2946 190.73L55.5195 188.743ZM65.3604 191.623C65.9116 191.659 66.3871 191.24 66.4225 190.689C66.4579 190.138 66.0399 189.663 65.4887 189.627L65.3604 191.623ZM75.4905 190.025C74.9382 190.017 74.4837 190.458 74.4753 191.01C74.4669 191.562 74.9077 192.016 75.4599 192.025L75.4905 190.025ZM85.5623 191.931C86.1142 191.912 86.5465 191.449 86.5277 190.897C86.5089 190.345 86.0462 189.913 85.4943 189.932L85.5623 191.931ZM95.4648 189.346C94.9144 189.392 94.5056 189.875 94.5516 190.425C94.5977 190.976 95.0811 191.385 95.6315 191.339L95.4648 189.346ZM105.664 190.249C106.212 190.175 106.596 189.672 106.523 189.125C106.45 188.577 105.946 188.193 105.399 188.266L105.664 190.249ZM115.273 186.696C114.729 186.796 114.37 187.318 114.471 187.861C114.571 188.404 115.092 188.763 115.635 188.663L115.273 186.696ZM125.515 186.588C126.053 186.461 126.386 185.923 126.259 185.385C126.133 184.848 125.594 184.514 125.057 184.641L125.515 186.588ZM134.714 182.116C134.183 182.269 133.876 182.823 134.029 183.353C134.181 183.884 134.735 184.191 135.266 184.038L134.714 182.116ZM144.88 181.024C145.403 180.847 145.683 180.279 145.505 179.756C145.328 179.233 144.76 178.953 144.237 179.131L144.88 181.024ZM153.611 175.699C153.097 175.901 152.843 176.481 153.045 176.996C153.247 177.51 153.828 177.763 154.342 177.561L153.611 175.699ZM163.639 173.664C164.143 173.439 164.37 172.848 164.145 172.343C163.92 171.839 163.329 171.612 162.824 171.837L163.639 173.664ZM171.87 167.56C171.376 167.807 171.176 168.408 171.423 168.902C171.67 169.396 172.27 169.596 172.764 169.349L171.87 167.56ZM181.715 164.631C182.198 164.363 182.372 163.754 182.104 163.271C181.837 162.788 181.228 162.614 180.745 162.882L181.715 164.631ZM189.378 157.859C188.906 158.146 188.757 158.762 189.044 159.233C189.332 159.705 189.947 159.854 190.419 159.567L189.378 157.859ZM198.894 154.169C199.354 153.864 199.479 153.243 199.173 152.783C198.868 152.323 198.247 152.198 197.787 152.504L198.894 154.169ZM206.019 146.805C205.571 147.127 205.469 147.752 205.792 148.2C206.115 148.649 206.74 148.75 207.188 148.427L206.019 146.805ZM215.31 142.348C215.746 142.009 215.825 141.381 215.486 140.945C215.147 140.509 214.519 140.43 214.083 140.769L215.31 142.348ZM221.823 134.54C221.398 134.893 221.341 135.524 221.694 135.948C222.048 136.372 222.679 136.43 223.103 136.076L221.823 134.54ZM230.882 129.483C231.306 129.13 231.364 128.499 231.01 128.075C230.657 127.651 230.026 127.593 229.602 127.947L230.882 129.483ZM237.395 121.675C236.959 122.014 236.88 122.642 237.219 123.078C237.557 123.514 238.186 123.593 238.622 123.254L237.395 121.675ZM246.686 117.218C247.134 116.896 247.235 116.271 246.913 115.822C246.59 115.374 245.965 115.273 245.517 115.596L246.686 117.218ZM253.811 109.854C253.351 110.159 253.226 110.78 253.531 111.24C253.837 111.7 254.458 111.825 254.918 111.519L253.811 109.854ZM263.327 106.164C263.798 105.877 263.948 105.261 263.66 104.79C263.373 104.318 262.758 104.169 262.286 104.456L263.327 106.164ZM270.99 99.392C270.507 99.6599 270.332 100.269 270.6 100.752C270.868 101.234 271.477 101.409 271.96 101.141L270.99 99.392ZM280.835 96.4628C281.329 96.2158 281.529 95.6151 281.282 95.1211C281.035 94.6271 280.434 94.4269 279.94 94.6739L280.835 96.4628ZM289.066 90.359C288.561 90.5839 288.335 91.1752 288.56 91.6796C288.785 92.184 289.376 92.4105 289.88 92.1855L289.066 90.359ZM299.094 88.3236C299.608 88.1218 299.861 87.5415 299.659 87.0274C299.458 86.5133 298.877 86.2601 298.363 86.462L299.094 88.3236ZM307.825 82.9987C307.302 83.1763 307.022 83.7443 307.199 84.2672C307.377 84.7901 307.945 85.07 308.468 84.8924L307.825 82.9987ZM317.991 81.9069C318.522 81.7544 318.829 81.2004 318.676 80.6696C318.523 80.1388 317.969 79.8322 317.439 79.9848L317.991 81.9069ZM327.189 77.4351C326.652 77.5618 326.319 78.1003 326.445 78.6379C326.572 79.1754 327.11 79.5085 327.648 79.3818L327.189 77.4351ZM337.432 77.327C337.975 77.2268 338.334 76.7053 338.234 76.1622C338.134 75.6191 337.612 75.26 337.069 75.3602L337.432 77.327ZM347.04 73.7743C346.493 73.8476 346.109 74.3507 346.182 74.8981C346.255 75.4455 346.758 75.8299 347.306 75.7567L347.04 73.7743ZM357.24 74.6774C357.79 74.6313 358.199 74.1478 358.153 73.5975C358.107 73.0471 357.624 72.6383 357.073 72.6843L357.24 74.6774ZM367.142 72.0924C366.59 72.1112 366.158 72.5739 366.177 73.1258C366.196 73.6778 366.658 74.11 367.21 74.0913L367.142 72.0924ZM377.214 73.9978C377.766 74.0062 378.221 73.5654 378.229 73.0132C378.238 72.4609 377.797 72.0064 377.245 71.998L377.214 73.9978ZM387.344 72.3998C386.793 72.3644 386.318 72.7825 386.282 73.3336C386.247 73.8848 386.665 74.3603 387.216 74.3957L387.344 72.3998ZM397.185 75.2799C397.734 75.342 398.229 74.9475 398.291 74.3987C398.353 73.8499 397.959 73.3547 397.41 73.2926L397.185 75.2799ZM407.41 74.668C406.865 74.5797 406.351 74.95 406.263 75.4952C406.175 76.0403 406.545 76.5539 407.09 76.6422L407.41 74.668ZM416.891 78.4705C417.432 78.5846 417.962 78.2391 418.076 77.6987C418.19 77.1584 417.845 76.6278 417.304 76.5137L416.891 78.4705ZM427.151 78.8399C426.617 78.7002 426.071 79.02 425.931 79.5543C425.791 80.0886 426.111 80.6351 426.645 80.7748L427.151 78.8399ZM436.242 83.5319C436.769 83.6971 437.33 83.4038 437.495 82.8768C437.66 82.3498 437.367 81.7887 436.84 81.6234L436.242 83.5319ZM446.421 84.8879C445.903 84.6968 445.328 84.9619 445.137 85.4801C444.946 85.9983 445.211 86.5732 445.729 86.7644L446.421 84.8879ZM455.015 90.4674C455.522 90.6858 456.11 90.4516 456.329 89.9443C456.547 89.437 456.313 88.8488 455.806 88.6304L455.015 90.4674ZM464.972 92.9142C464.48 92.6634 463.878 92.8589 463.627 93.3509C463.376 93.8429 463.572 94.4451 464.064 94.696L464.972 92.9142ZM-16.1584 167.865C-16.6736 168.722 -16.6736 168.722 -16.6735 168.722C-16.6735 168.722 -16.6734 168.722 -16.6733 168.722C-16.6732 168.722 -16.6731 168.723 -16.6729 168.723C-16.6726 168.723 -16.6722 168.723 -16.6717 168.723C-16.6706 168.724 -16.6693 168.725 -16.6675 168.726C-16.664 168.728 -16.6591 168.731 -16.6526 168.735C-16.6398 168.742 -16.6211 168.754 -16.5966 168.768C-16.5477 168.797 -16.4755 168.839 -16.3805 168.894C-16.1905 169.004 -15.9089 169.165 -15.5384 169.372C-14.7973 169.784 -13.7002 170.378 -12.2673 171.109L-11.3588 169.327C-12.7691 168.608 -13.8447 168.026 -14.5655 167.624C-14.9259 167.424 -15.1976 167.268 -15.378 167.164C-15.4682 167.111 -15.5357 167.072 -15.58 167.046C-15.6021 167.033 -15.6185 167.023 -15.629 167.017C-15.6343 167.013 -15.6381 167.011 -15.6405 167.01C-15.6416 167.009 -15.6425 167.009 -15.6429 167.008C-15.6431 167.008 -15.6433 167.008 -15.6433 167.008C-15.6433 167.008 -15.6433 167.008 -15.6433 167.008C-15.6433 167.008 -15.6432 167.008 -15.6432 167.008C-15.6432 167.008 -15.6432 167.008 -16.1584 167.865ZM-3.10091 175.393C-0.350292 176.577 2.78755 177.845 6.28374 179.135L6.97583 177.259C3.5147 175.982 0.40979 174.726 -2.3101 173.556L-3.10091 175.393ZM15.8645 182.399C18.9117 183.355 22.1453 184.291 25.5534 185.183L26.0595 183.248C22.6836 182.365 19.4807 181.437 16.4628 180.491L15.8645 182.399ZM35.4002 187.509C38.5813 188.181 41.8819 188.802 45.2947 189.355L45.6146 187.381C42.2341 186.833 38.9646 186.218 35.8135 185.552L35.4002 187.509ZM55.2946 190.73C58.566 191.1 61.9231 191.402 65.3604 191.623L65.4887 189.627C62.0845 189.408 58.7596 189.11 55.5195 188.743L55.2946 190.73ZM75.4599 192.025C78.7652 192.075 82.1341 192.047 85.5623 191.931L85.4943 189.932C82.0997 190.047 78.7636 190.075 75.4905 190.025L75.4599 192.025ZM95.6315 191.339C98.9292 191.063 102.275 190.702 105.664 190.249L105.399 188.266C102.043 188.715 98.7301 189.072 95.4648 189.346L95.6315 191.339ZM115.635 188.663C118.894 188.062 122.188 187.372 125.515 186.588L125.057 184.641C121.762 185.418 118.499 186.101 115.273 186.696L115.635 188.663ZM135.266 184.038C138.445 183.124 141.651 182.121 144.88 181.024L144.237 179.131C141.037 180.217 137.862 181.211 134.714 182.116L135.266 184.038ZM154.342 177.561C157.422 176.352 160.522 175.054 163.639 173.664L162.824 171.837C159.735 173.215 156.663 174.501 153.611 175.699L154.342 177.561ZM172.764 169.349C175.735 167.864 178.719 166.292 181.715 164.631L180.745 162.882C177.774 164.53 174.815 166.088 171.87 167.56L172.764 169.349ZM190.419 159.567C193.235 157.85 196.061 156.052 198.894 154.169L197.787 152.504C194.976 154.372 192.172 156.156 189.378 157.859L190.419 159.567ZM207.188 148.427C209.89 146.481 212.598 144.455 215.31 142.348L214.083 140.769C211.39 142.861 208.702 144.872 206.019 146.805L207.188 148.427ZM223.103 136.076C224.403 134.993 225.704 133.891 227.005 132.769L225.699 131.254C224.406 132.369 223.114 133.464 221.823 134.54L223.103 136.076ZM227.005 132.769C228.298 131.654 229.591 130.559 230.882 129.483L229.602 127.947C228.302 129.03 227.001 130.132 225.699 131.254L227.005 132.769ZM238.622 123.254C241.315 121.162 244.003 119.151 246.686 117.218L245.517 115.596C242.814 117.542 240.107 119.568 237.395 121.675L238.622 123.254ZM254.918 111.519C257.729 109.651 260.532 107.867 263.327 106.164L262.286 104.456C259.469 106.173 256.644 107.971 253.811 109.854L254.918 111.519ZM271.96 101.141C274.931 99.4934 277.89 97.9352 280.835 96.4628L279.94 94.6739C276.97 96.1591 273.985 97.7306 270.99 99.392L271.96 101.141ZM289.88 92.1855C292.97 90.8078 296.041 89.522 299.094 88.3236L298.363 86.462C295.282 87.6714 292.183 88.9689 289.066 90.359L289.88 92.1855ZM308.468 84.8924C311.667 83.8054 314.842 82.8121 317.991 81.9069L317.439 79.9848C314.26 80.8986 311.054 81.9015 307.825 82.9987L308.468 84.8924ZM327.648 79.3818C330.943 78.605 334.205 77.9223 337.432 77.327L337.069 75.3602C333.811 75.9613 330.516 76.6508 327.189 77.4351L327.648 79.3818ZM347.306 75.7567C350.662 75.3077 353.975 74.9505 357.24 74.6774L357.073 72.6843C353.775 72.9601 350.43 73.3209 347.04 73.7743L347.306 75.7567ZM367.21 74.0913C370.605 73.9758 373.941 73.9478 377.214 73.9978L377.245 71.998C373.939 71.9476 370.571 71.9758 367.142 72.0924L367.21 74.0913ZM387.216 74.3957C390.62 74.6145 393.945 74.9133 397.185 75.2799L397.41 73.2926C394.139 72.9225 390.782 72.6208 387.344 72.3998L387.216 74.3957ZM407.09 76.6422C410.471 77.19 413.74 77.8049 416.891 78.4705L417.304 76.5137C414.123 75.8418 410.823 75.221 407.41 74.668L407.09 76.6422ZM426.645 80.7748C430.021 81.6579 433.224 82.5858 436.242 83.5319L436.84 81.6234C433.793 80.6682 430.559 79.7314 427.151 78.8399L426.645 80.7748ZM445.729 86.7644C449.19 88.0409 452.295 89.2965 455.015 90.4674L455.806 88.6304C453.055 87.4463 449.917 86.1774 446.421 84.8879L445.729 86.7644ZM464.064 94.696C465.474 95.415 466.549 95.9974 467.27 96.3987C467.631 96.5994 467.902 96.7547 468.083 96.8593C468.173 96.9115 468.24 96.9511 468.285 96.9772C468.307 96.9903 468.323 97 468.334 97.0063C468.339 97.0095 468.343 97.0117 468.345 97.0132C468.346 97.0139 468.347 97.0144 468.348 97.0146C468.348 97.0148 468.348 97.0148 468.348 97.0149C468.348 97.0149 468.348 97.0149 468.348 97.0149C468.348 97.0148 468.348 97.0148 468.348 97.0148C468.348 97.0148 468.348 97.0148 468.863 96.1577C469.378 95.3007 469.378 95.3006 469.378 95.3006C469.378 95.3006 469.378 95.3005 469.378 95.3005C469.378 95.3004 469.378 95.3003 469.378 95.3002C469.377 95.3001 469.377 95.2998 469.376 95.2995C469.375 95.2989 469.374 95.2981 469.372 95.297C469.369 95.2949 469.364 95.2919 469.357 95.2881C469.345 95.2805 469.326 95.2694 469.301 95.2549C469.252 95.226 469.18 95.1837 469.085 95.1287C468.895 95.0186 468.614 94.8576 468.243 94.6513C467.502 94.2387 466.405 93.6448 464.972 92.9142L464.064 94.696Z"
          fill="url(#paint0_radial)" fill-opacity="0.5"/>
    <path d="M0 67.0005C0 67.0005 106.5 216.501 250.5 158.501C394.5 100.501 460 175 460 175"
          stroke="url(#paint1_radial)" stroke-width="4" stroke-linecap="round" stroke-dasharray="10 10"/>
    <defs>
        <radialGradient id="paint0_radial" cx="0" cy="0" r="1" gradientUnits="userSpaceOnUse"
                        gradientTransform="translate(198.999 132.001) rotate(-110.83) scale(208.102 232.476)">
            <stop stop-color="#8A949B"/>
            <stop offset="1" stop-color="#8A949B" stop-opacity="0"/>
        </radialGradient>
        <radialGradient id="paint1_radial" cx="0" cy="0" r="1" gradientUnits="userSpaceOnUse"
                        gradientTransform="translate(395.5 148.5) rotate(-171.06) scale(405.425 64.464)">
            <stop stop-color="#CB2D3E" stop-opacity="0"/>
            <stop offset="0.302999" stop-color="#CB2D3E"/>
            <stop offset="0.593832" stop-color="#EF473A"/>
            <stop offset="1" stop-color="#EF473A" stop-opacity="0"/>
        </radialGradient>
    </defs>
</svg>