<svg width="928" height="829" viewBox="0 0 928 829" fill="none" xmlns="http://www.w3.org/2000/svg">
    <path d="M1167.34 1C1167.34 1 1179.36 290.865 553.826 422.5C-71.7028 554.135 3.86118 874.5 3.86118 874.5" stroke="url(#paint0_linear)" stroke-opacity="0.2" stroke-width="2" stroke-linecap="round" stroke-linejoin="round" stroke-dasharray="4 4"/>
    <path d="M34.9991 884.006C34.4503 883.945 33.9554 884.34 33.8937 884.888C33.832 885.437 34.227 885.932 34.7758 885.994L34.9991 884.006ZM735.97 387.134C736.045 386.587 735.661 386.083 735.114 386.009C734.567 385.935 734.063 386.318 733.988 386.866L735.97 387.134ZM36.7177 886.192C37.2674 886.245 37.7562 885.843 37.8095 885.293C37.8627 884.743 37.4602 884.255 36.9105 884.201L36.7177 886.192ZM40.676 884.542C40.1257 884.495 39.6417 884.903 39.595 885.454C39.5483 886.004 39.9566 886.488 40.5069 886.535L40.676 884.542ZM44.4108 886.848C44.9615 886.89 45.4418 886.477 45.4836 885.926C45.5254 885.376 45.1128 884.895 44.5621 884.854L44.4108 886.848ZM48.666 885.148C48.115 885.111 47.638 885.527 47.6005 886.078C47.5631 886.629 47.9795 887.106 48.5305 887.144L48.666 885.148ZM52.5081 887.4C53.0594 887.434 53.5335 887.014 53.5672 886.463C53.6008 885.911 53.1812 885.437 52.6299 885.404L52.5081 887.4ZM56.5044 885.628C55.953 885.598 55.4814 886.02 55.4512 886.572C55.421 887.123 55.8435 887.595 56.395 887.625L56.5044 885.628ZM60.6323 887.844C61.1839 887.87 61.6528 887.445 61.6795 886.893C61.7062 886.341 61.2807 885.873 60.7291 885.846L60.6323 887.844ZM64.6082 886.023C64.0564 885.999 63.5899 886.427 63.5662 886.979C63.5425 887.531 63.9706 887.997 64.5224 888.021L64.6082 886.023ZM68.4096 888.178C68.9615 888.198 69.4257 887.768 69.4464 887.216C69.4672 886.664 69.0366 886.2 68.4847 886.179L68.4096 888.178ZM72.5724 886.321C72.0204 886.304 71.5585 886.737 71.5408 887.289C71.523 887.841 71.9561 888.303 72.5081 888.32L72.5724 886.321ZM76.6935 888.444C77.2455 888.459 77.7051 888.023 77.7199 887.471C77.7347 886.919 77.2991 886.459 76.747 886.444L76.6935 888.444ZM80.5381 886.537C79.986 886.525 79.5285 886.963 79.5164 887.515C79.5042 888.067 79.942 888.524 80.4941 888.536L80.5381 886.537ZM84.4369 888.614C84.9891 888.623 85.4445 888.183 85.4539 887.631C85.4634 887.079 85.0235 886.623 84.4713 886.614L84.4369 888.614ZM88.5435 886.674C87.9912 886.667 87.5381 887.109 87.5313 887.662C87.5246 888.214 87.9668 888.667 88.519 888.674L88.5435 886.674ZM92.7375 888.715C93.2897 888.719 93.7407 888.274 93.7447 887.722C93.7487 887.17 93.3042 886.719 92.7519 886.715L92.7375 888.715ZM96.5706 886.734C96.0183 886.732 95.5694 887.179 95.5679 887.731C95.5663 888.283 96.0128 888.732 96.5651 888.734L96.5706 886.734ZM100.475 888.736C101.028 888.735 101.475 888.286 101.474 887.734C101.473 887.182 101.024 886.735 100.472 886.736L100.475 888.736ZM104.472 886.719C103.919 886.723 103.475 887.173 103.478 887.726C103.482 888.278 103.932 888.723 104.484 888.719L104.472 886.719ZM108.59 888.684C109.143 888.677 109.585 888.225 109.579 887.673C109.573 887.12 109.121 886.678 108.568 886.684L108.59 888.684ZM112.69 886.628C112.138 886.637 111.698 887.092 111.706 887.644C111.715 888.196 112.17 888.637 112.722 888.628L112.69 886.628ZM116.576 888.559C117.128 888.548 117.567 888.092 117.556 887.539C117.545 886.987 117.088 886.549 116.536 886.56L116.576 888.559ZM120.455 886.473C119.903 886.486 119.466 886.945 119.48 887.497C119.493 888.049 119.952 888.485 120.504 888.472L120.455 886.473ZM124.504 888.365C125.056 888.349 125.491 887.889 125.475 887.337C125.459 886.785 124.999 886.35 124.447 886.366L124.504 888.365ZM128.509 886.24C127.957 886.258 127.525 886.721 127.543 887.273C127.561 887.825 128.024 888.257 128.576 888.239L128.509 886.24ZM132.717 888.091C133.269 888.07 133.699 887.606 133.678 887.054C133.657 886.502 133.193 886.071 132.641 886.092L132.717 888.091ZM136.55 885.936C135.998 885.959 135.569 886.425 135.593 886.977C135.616 887.529 136.082 887.957 136.634 887.934L136.55 885.936ZM140.544 887.76C141.095 887.734 141.522 887.266 141.496 886.715C141.47 886.163 141.002 885.737 140.451 885.762L140.544 887.76ZM144.406 885.569C143.855 885.598 143.431 886.067 143.459 886.619C143.487 887.171 143.957 887.595 144.508 887.567L144.406 885.569ZM148.527 887.353C149.078 887.323 149.5 886.851 149.47 886.3C149.439 885.748 148.968 885.326 148.416 885.356L148.527 887.353ZM152.479 885.122C151.927 885.155 151.507 885.629 151.54 886.18C151.573 886.732 152.047 887.152 152.598 887.119L152.479 885.122ZM156.721 886.863C157.272 886.827 157.69 886.352 157.655 885.801C157.62 885.249 157.144 884.831 156.593 884.867L156.721 886.863ZM160.467 884.609C159.916 884.647 159.5 885.124 159.538 885.675C159.576 886.226 160.053 886.642 160.604 886.604L160.467 884.609ZM164.525 886.327C165.076 886.287 165.49 885.807 165.45 885.257C165.409 884.706 164.93 884.292 164.379 884.332L164.525 886.327ZM168.334 884.035C167.783 884.077 167.371 884.558 167.414 885.109C167.456 885.66 167.937 886.071 168.488 886.029L168.334 884.035ZM172.492 885.71C173.043 885.665 173.452 885.182 173.407 884.632C173.362 884.081 172.88 883.672 172.329 883.717L172.492 885.71ZM176.365 883.377C175.814 883.425 175.407 883.909 175.454 884.46C175.502 885.01 175.986 885.417 176.537 885.37L176.365 883.377ZM180.621 885.008C181.171 884.958 181.576 884.472 181.526 883.922C181.476 883.372 180.99 882.966 180.44 883.016L180.621 885.008ZM184.38 882.649C183.83 882.702 183.427 883.19 183.479 883.74C183.532 884.29 184.02 884.693 184.57 884.64L184.38 882.649ZM188.48 884.259C189.03 884.204 189.431 883.714 189.376 883.165C189.321 882.615 188.831 882.214 188.282 882.269L188.48 884.259ZM192.216 881.868C191.667 881.925 191.268 882.417 191.325 882.966C191.383 883.515 191.874 883.914 192.424 883.857L192.216 881.868ZM196.399 883.434C196.948 883.374 197.345 882.881 197.285 882.332C197.225 881.783 196.732 881.386 196.183 881.446L196.399 883.434ZM200.18 881.002C199.632 881.064 199.237 881.559 199.299 882.108C199.361 882.657 199.857 883.051 200.405 882.989L200.18 881.002ZM204.443 882.523C204.991 882.458 205.383 881.961 205.319 881.412C205.254 880.864 204.757 880.472 204.208 880.536L204.443 882.523ZM208.26 880.049C207.712 880.116 207.322 880.615 207.389 881.163C207.456 881.712 207.955 882.101 208.503 882.034L208.26 880.049ZM212.393 881.549C212.941 881.479 213.328 880.978 213.259 880.431C213.189 879.883 212.689 879.495 212.141 879.565L212.393 881.549ZM216.047 879.059C215.5 879.131 215.114 879.634 215.186 880.181C215.258 880.729 215.761 881.114 216.308 881.042L216.047 879.059ZM220.249 880.514C220.796 880.44 221.179 879.935 221.104 879.388C221.03 878.841 220.526 878.458 219.978 878.532L220.249 880.514ZM223.934 877.984C223.387 878.061 223.006 878.567 223.084 879.114C223.161 879.661 223.666 880.042 224.213 879.964L223.934 877.984ZM228.202 879.393C228.748 879.313 229.127 878.805 229.047 878.259C228.968 877.712 228.46 877.334 227.913 877.414L228.202 879.393ZM231.916 876.821C231.37 876.903 230.994 877.412 231.076 877.958C231.158 878.505 231.668 878.881 232.214 878.798L231.916 876.821ZM236.247 878.181C236.793 878.097 237.167 877.585 237.082 877.04C236.997 876.494 236.486 876.12 235.94 876.205L236.247 878.181ZM239.815 875.594C239.269 875.681 238.898 876.194 238.985 876.739C239.073 877.285 239.586 877.656 240.131 877.569L239.815 875.594ZM244.034 876.935C244.579 876.845 244.948 876.33 244.858 875.785C244.768 875.24 244.254 874.871 243.709 874.961L244.034 876.935ZM247.622 874.306C247.077 874.399 246.711 874.915 246.803 875.46C246.896 876.004 247.412 876.371 247.956 876.278L247.622 874.306ZM251.897 875.6C252.441 875.505 252.805 874.987 252.71 874.443C252.615 873.899 252.097 873.535 251.553 873.63L251.897 875.6ZM255.502 872.93C254.959 873.028 254.597 873.548 254.695 874.091C254.792 874.635 255.312 874.996 255.856 874.899L255.502 872.93ZM259.832 874.175C260.375 874.074 260.734 873.553 260.634 873.01C260.533 872.467 260.012 872.108 259.469 872.208L259.832 874.175ZM263.452 871.462C262.91 871.565 262.553 872.089 262.656 872.631C262.759 873.174 263.282 873.53 263.825 873.427L263.452 871.462ZM267.738 872.675C268.28 872.569 268.634 872.044 268.529 871.502C268.423 870.96 267.898 870.606 267.356 870.712L267.738 872.675ZM271.226 869.948C270.685 870.057 270.334 870.583 270.442 871.125C270.55 871.667 271.077 872.018 271.618 871.91L271.226 869.948ZM275.512 871.122C276.053 871.011 276.402 870.482 276.291 869.941C276.181 869.4 275.652 869.052 275.111 869.162L275.512 871.122ZM279.009 868.354C278.469 868.467 278.123 868.998 278.236 869.538C278.35 870.078 278.88 870.425 279.42 870.311L279.009 868.354ZM283.341 869.477C283.881 869.361 284.225 868.829 284.109 868.289C283.992 867.749 283.46 867.406 282.921 867.522L283.341 869.477ZM286.844 866.667C286.305 866.786 285.964 867.32 286.083 867.859C286.202 868.398 286.736 868.739 287.275 868.62L286.844 866.667ZM291.221 867.739C291.76 867.617 292.098 867.082 291.976 866.543C291.855 866.005 291.319 865.667 290.781 865.788L291.221 867.739ZM294.722 864.887C294.184 865.012 293.849 865.549 293.973 866.087C294.098 866.625 294.635 866.96 295.173 866.836L294.722 864.887ZM299.021 865.935C299.559 865.808 299.891 865.269 299.764 864.732C299.637 864.194 299.098 863.862 298.561 863.989L299.021 865.935ZM302.409 863.068C301.873 863.198 301.543 863.738 301.673 864.275C301.803 864.812 302.343 865.141 302.88 865.012L302.409 863.068ZM306.748 864.065C307.284 863.932 307.611 863.39 307.479 862.854C307.346 862.317 306.804 861.99 306.268 862.123L306.748 864.065ZM310.135 861.155C309.6 861.29 309.275 861.834 309.411 862.37C309.546 862.905 310.09 863.229 310.626 863.094L310.135 861.155ZM314.512 862.099C315.047 861.961 315.368 861.415 315.23 860.881C315.091 860.346 314.546 860.025 314.011 860.163L314.512 862.099ZM317.896 859.147C317.362 859.288 317.043 859.835 317.185 860.369C317.326 860.903 317.873 861.222 318.407 861.081L317.896 859.147ZM322.31 860.037C322.843 859.893 323.158 859.344 323.014 858.811C322.87 858.278 322.321 857.962 321.788 858.107L322.31 860.037ZM325.668 857.047C325.135 857.194 324.823 857.745 324.97 858.277C325.117 858.809 325.668 859.122 326.2 858.975L325.668 857.047ZM330.016 857.911C330.548 857.761 330.857 857.209 330.707 856.677C330.558 856.145 330.005 855.836 329.474 855.986L330.016 857.911ZM333.286 854.9C332.755 855.053 332.448 855.607 332.601 856.138C332.754 856.669 333.308 856.975 333.839 856.822L333.286 854.9ZM337.667 855.71C338.197 855.554 338.5 854.999 338.345 854.469C338.189 853.939 337.634 853.635 337.104 853.791L337.667 855.71ZM340.927 852.657C340.398 852.816 340.098 853.373 340.256 853.902C340.414 854.431 340.972 854.732 341.501 854.573L340.927 852.657ZM345.34 853.412C345.868 853.25 346.165 852.691 346.004 852.163C345.842 851.635 345.283 851.337 344.755 851.499L345.34 853.412ZM348.588 850.316C348.061 850.48 347.767 851.041 347.931 851.568C348.096 852.095 348.656 852.389 349.184 852.225L348.588 850.316ZM353.031 851.013C353.558 850.846 353.849 850.284 353.681 849.757C353.514 849.231 352.952 848.94 352.425 849.107L353.031 851.013ZM356.254 847.878C355.729 848.048 355.441 848.612 355.612 849.137C355.782 849.663 356.346 849.95 356.871 849.78L356.254 847.878ZM360.641 848.545C361.166 848.372 361.45 847.806 361.277 847.282C361.104 846.758 360.538 846.473 360.014 846.646L360.641 848.545ZM363.776 845.391C363.252 845.567 362.971 846.134 363.147 846.658C363.324 847.181 363.891 847.462 364.414 847.286L363.776 845.391ZM368.19 846.001C368.712 845.822 368.99 845.253 368.811 844.731C368.631 844.208 368.063 843.93 367.54 844.11L368.19 846.001ZM371.307 842.804C370.786 842.986 370.511 843.557 370.693 844.078C370.876 844.599 371.446 844.874 371.967 844.692L371.307 842.804ZM375.747 843.356C376.267 843.171 376.538 842.599 376.353 842.079C376.167 841.558 375.595 841.287 375.075 841.473L375.747 843.356ZM378.845 840.116C378.326 840.304 378.058 840.878 378.246 841.397C378.435 841.916 379.009 842.184 379.528 841.995L378.845 840.116ZM383.31 840.608C383.828 840.417 384.092 839.841 383.9 839.323C383.709 838.805 383.133 838.541 382.615 838.733L383.31 840.608ZM386.387 837.324C385.87 837.519 385.609 838.096 385.804 838.612C385.998 839.129 386.575 839.39 387.092 839.195L386.387 837.324ZM390.809 837.781C391.325 837.583 391.583 837.004 391.385 836.489C391.187 835.973 390.608 835.716 390.093 835.914L390.809 837.781ZM393.791 834.481C393.277 834.682 393.023 835.262 393.224 835.776C393.425 836.29 394.005 836.544 394.519 836.343L393.791 834.481ZM398.229 834.88C398.742 834.676 398.992 834.094 398.788 833.581C398.584 833.068 398.002 832.818 397.489 833.022L398.229 834.88ZM401.186 831.537C400.674 831.745 400.427 832.328 400.635 832.839C400.842 833.351 401.425 833.598 401.937 833.391L401.186 831.537ZM405.645 831.875C406.155 831.665 406.398 831.08 406.188 830.569C405.977 830.059 405.392 829.816 404.882 830.026L405.645 831.875ZM408.576 828.489C408.067 828.703 407.827 829.289 408.041 829.798C408.255 830.307 408.841 830.547 409.35 830.333L408.576 828.489ZM413.054 828.764C413.562 828.547 413.798 827.959 413.581 827.452C413.364 826.944 412.776 826.708 412.268 826.925L413.054 828.764ZM415.958 825.334C415.451 825.554 415.219 826.144 415.44 826.65C415.66 827.156 416.249 827.388 416.756 827.168L415.958 825.334ZM420.423 825.559C420.928 825.336 421.156 824.745 420.933 824.24C420.709 823.735 420.118 823.507 419.613 823.73L420.423 825.559ZM423.234 822.114C422.73 822.341 422.506 822.933 422.733 823.436C422.96 823.94 423.552 824.164 424.055 823.938L423.234 822.114ZM427.684 822.289C428.186 822.059 428.407 821.466 428.177 820.964C427.947 820.462 427.353 820.241 426.851 820.471L427.684 822.289ZM430.465 818.801C429.964 819.035 429.747 819.63 429.981 820.13C430.214 820.631 430.809 820.847 431.31 820.614L430.465 818.801ZM434.931 818.912C435.43 818.675 435.643 818.079 435.406 817.58C435.17 817.081 434.573 816.868 434.074 817.105L434.931 818.912ZM437.68 815.381C437.182 815.621 436.973 816.219 437.213 816.716C437.453 817.214 438.051 817.422 438.548 817.182L437.68 815.381ZM442.161 815.425C442.657 815.182 442.861 814.583 442.618 814.087C442.375 813.591 441.776 813.387 441.28 813.63L442.161 815.425ZM444.875 811.851C444.381 812.098 444.181 812.698 444.427 813.192C444.674 813.687 445.274 813.887 445.768 813.641L444.875 811.851ZM449.371 811.828C449.863 811.578 450.06 810.976 449.81 810.484C449.56 809.991 448.958 809.795 448.466 810.045L449.371 811.828ZM451.996 808.238C451.505 808.491 451.312 809.095 451.565 809.585C451.819 810.076 452.422 810.269 452.913 810.016L451.996 808.238ZM456.446 808.177C456.935 807.921 457.123 807.316 456.866 806.827C456.61 806.338 456.005 806.15 455.516 806.406L456.446 808.177ZM459.031 804.547C458.544 804.807 458.359 805.412 458.619 805.9C458.879 806.387 459.485 806.571 459.972 806.311L459.031 804.547ZM463.493 804.418C463.978 804.154 464.158 803.547 463.895 803.062C463.632 802.576 463.024 802.396 462.539 802.659L463.493 804.418ZM466.04 800.744C465.557 801.011 465.381 801.619 465.648 802.103C465.914 802.587 466.523 802.762 467.006 802.496L466.04 800.744ZM470.513 800.546C470.994 800.276 471.166 799.666 470.896 799.184C470.626 798.703 470.016 798.531 469.534 798.801L470.513 800.546ZM473.021 796.83C472.541 797.103 472.374 797.714 472.648 798.194C472.921 798.674 473.532 798.841 474.012 798.567L473.021 796.83ZM477.503 796.56C477.981 796.283 478.144 795.671 477.867 795.193C477.59 794.716 476.978 794.553 476.5 794.83L477.503 796.56ZM479.957 792.809C479.481 793.09 479.323 793.703 479.603 794.179C479.883 794.654 480.496 794.813 480.972 794.533L479.957 792.809ZM484.392 792.501C484.865 792.217 485.019 791.603 484.736 791.129C484.452 790.655 483.838 790.501 483.364 790.785L484.392 792.501ZM486.763 788.733C486.291 789.02 486.141 789.635 486.428 790.107C486.716 790.579 487.331 790.728 487.803 790.441L486.763 788.733ZM491.205 788.353C491.674 788.062 491.82 787.446 491.529 786.976C491.238 786.506 490.622 786.361 490.152 786.652L491.205 788.353ZM493.533 784.543C493.066 784.837 492.925 785.454 493.219 785.921C493.513 786.389 494.131 786.53 494.598 786.236L493.533 784.543ZM497.982 784.09C498.447 783.792 498.583 783.174 498.286 782.708C497.988 782.243 497.37 782.107 496.905 782.405L497.982 784.09ZM500.266 780.238C499.803 780.539 499.672 781.158 499.973 781.621C500.273 782.084 500.893 782.216 501.356 781.915L500.266 780.238ZM504.72 779.71C505.181 779.406 505.308 778.786 505.003 778.325C504.699 777.864 504.078 777.737 503.618 778.042L504.72 779.71ZM506.959 775.816C506.5 776.124 506.378 776.746 506.686 777.204C506.994 777.663 507.615 777.785 508.074 777.477L506.959 775.816ZM511.393 775.23C511.85 774.918 511.967 774.296 511.656 773.84C511.344 773.384 510.722 773.266 510.266 773.578L511.393 775.23ZM513.53 771.332C513.076 771.647 512.964 772.27 513.278 772.724C513.593 773.177 514.216 773.29 514.67 772.975L513.53 771.332ZM517.936 770.692C518.387 770.374 518.495 769.75 518.177 769.299C517.859 768.847 517.235 768.739 516.784 769.057L517.936 770.692ZM520.026 766.754C519.577 767.076 519.473 767.7 519.795 768.149C520.117 768.598 520.741 768.701 521.19 768.38L520.026 766.754ZM524.433 766.038C524.88 765.713 524.978 765.088 524.653 764.641C524.328 764.195 523.703 764.096 523.256 764.421L524.433 766.038ZM526.475 762.059C526.031 762.387 525.938 763.014 526.266 763.458C526.595 763.902 527.221 763.995 527.665 763.667L526.475 762.059ZM530.884 761.266C531.325 760.934 531.414 760.307 531.082 759.866C530.75 759.424 530.124 759.335 529.682 759.667L530.884 761.266ZM532.877 757.246C532.438 757.581 532.354 758.209 532.689 758.648C533.025 759.087 533.652 759.17 534.091 758.835L532.877 757.246ZM537.285 756.374C537.721 756.035 537.8 755.407 537.462 754.971C537.123 754.535 536.495 754.456 536.058 754.795L537.285 756.374ZM539.202 752.333C538.768 752.676 538.694 753.304 539.036 753.738C539.378 754.171 540.007 754.246 540.441 753.903L539.202 752.333ZM543.551 751.429C543.981 751.083 544.05 750.454 543.705 750.023C543.359 749.592 542.73 749.523 542.299 749.869L543.551 751.429ZM545.384 747.375C544.956 747.724 544.891 748.353 545.24 748.782C545.589 749.21 546.219 749.274 546.647 748.925L545.384 747.375ZM549.731 746.391C550.156 746.039 550.215 745.409 549.863 744.983C549.511 744.558 548.88 744.499 548.455 744.851L549.731 746.391ZM551.512 742.298C551.09 742.654 551.036 743.284 551.391 743.707C551.747 744.129 552.378 744.184 552.8 743.828L551.512 742.298ZM555.856 741.234C556.276 740.875 556.325 740.244 555.966 739.824C555.607 739.405 554.976 739.356 554.556 739.715L555.856 741.234ZM557.586 737.102C557.169 737.464 557.125 738.096 557.487 738.512C557.85 738.929 558.481 738.973 558.898 738.611L557.586 737.102ZM561.925 735.957C562.339 735.591 562.378 734.959 562.012 734.546C561.647 734.132 561.015 734.093 560.601 734.458L561.925 735.957ZM563.601 731.785C563.19 732.154 563.157 732.786 563.526 733.197C563.895 733.608 564.527 733.642 564.938 733.273L563.601 731.785ZM567.917 730.574C568.325 730.202 568.354 729.569 567.981 729.161C567.609 728.754 566.977 728.725 566.569 729.097L567.917 730.574ZM569.476 726.421C569.071 726.797 569.048 727.429 569.423 727.834C569.799 728.239 570.432 728.263 570.837 727.887L569.476 726.421ZM573.741 725.17C574.143 724.791 574.161 724.158 573.783 723.756C573.404 723.355 572.771 723.336 572.369 723.715L573.741 725.17ZM575.247 720.979C574.848 721.361 574.834 721.994 575.217 722.393C575.599 722.792 576.232 722.805 576.63 722.423L575.247 720.979ZM579.504 719.646C579.9 719.261 579.908 718.628 579.523 718.232C579.138 717.837 578.504 717.828 578.109 718.214L579.504 719.646ZM580.955 715.418C580.563 715.807 580.56 716.44 580.948 716.832C581.337 717.225 581.97 717.228 582.363 716.839L580.955 715.418ZM585.205 714.002C585.594 713.61 585.592 712.977 585.2 712.588C584.808 712.198 584.175 712.201 583.786 712.592L585.205 714.002ZM586.6 709.736C586.214 710.131 586.222 710.764 586.617 711.15C587.012 711.536 587.645 711.529 588.031 711.134L586.6 709.736ZM590.84 708.236C591.223 707.837 591.211 707.204 590.812 706.822C590.414 706.439 589.781 706.451 589.398 706.85L590.84 708.236ZM592.18 703.932C591.8 704.334 591.818 704.967 592.219 705.346C592.621 705.725 593.254 705.708 593.633 705.306L592.18 703.932ZM596.345 702.415C596.721 702.011 596.698 701.378 596.294 701.002C595.889 700.626 595.256 700.648 594.88 701.053L596.345 702.415ZM597.56 698.148C597.187 698.556 597.215 699.188 597.623 699.561C598.03 699.934 598.663 699.906 599.036 699.499L597.56 698.148ZM601.71 696.552C602.079 696.142 602.046 695.51 601.636 695.14C601.225 694.771 600.593 694.804 600.223 695.214L601.71 696.552ZM602.87 692.25C602.504 692.664 602.542 693.296 602.956 693.662C603.369 694.028 604.001 693.99 604.367 693.576L602.87 692.25ZM607.007 690.57C607.37 690.154 607.327 689.522 606.91 689.159C606.494 688.796 605.862 688.84 605.499 689.256L607.007 690.57ZM608.111 686.233C607.752 686.652 607.801 687.283 608.22 687.643C608.64 688.002 609.271 687.953 609.63 687.534L608.111 686.233ZM612.235 684.467C612.591 684.045 612.537 683.414 612.115 683.058C611.692 682.702 611.061 682.756 610.706 683.178L612.235 684.467ZM613.282 680.094C612.93 680.519 612.989 681.15 613.414 681.502C613.84 681.854 614.47 681.795 614.822 681.37L613.282 680.094ZM617.392 678.242C617.74 677.814 617.676 677.184 617.248 676.835C616.819 676.486 616.19 676.551 615.841 676.979L617.392 678.242ZM618.355 673.866C618.01 674.297 618.08 674.926 618.511 675.271C618.942 675.617 619.571 675.547 619.916 675.116L618.355 673.866ZM622.376 672.019C622.717 671.586 622.643 670.957 622.209 670.615C621.775 670.273 621.146 670.348 620.804 670.782L622.376 672.019ZM623.236 667.669C622.898 668.105 622.978 668.734 623.414 669.072C623.851 669.41 624.479 669.33 624.817 668.894L623.236 667.669ZM627.241 665.738C627.575 665.299 627.49 664.671 627.051 664.337C626.612 664.002 625.984 664.087 625.65 664.526L627.241 665.738ZM628.045 661.355C627.714 661.797 627.804 662.423 628.246 662.755C628.688 663.086 629.315 662.996 629.646 662.553L628.045 661.355ZM632.033 659.339C632.36 658.894 632.265 658.268 631.82 657.941C631.375 657.613 630.749 657.709 630.422 658.153L632.033 659.339ZM632.78 654.922C632.457 655.37 632.557 655.995 633.004 656.318C633.452 656.642 634.077 656.542 634.401 656.095L632.78 654.922ZM636.75 652.82C637.07 652.37 636.965 651.746 636.515 651.426C636.065 651.106 635.44 651.211 635.12 651.661L636.75 652.82ZM637.441 648.37C637.124 648.823 637.235 649.446 637.687 649.763C638.14 650.079 638.763 649.969 639.08 649.516L637.441 648.37ZM641.391 646.181C641.703 645.726 641.588 645.104 641.132 644.791C640.677 644.478 640.055 644.594 639.742 645.049L641.391 646.181ZM641.987 641.752C641.678 642.21 641.799 642.831 642.256 643.14C642.714 643.449 643.336 643.329 643.645 642.871L641.987 641.752ZM645.84 639.591C646.146 639.131 646.02 638.51 645.56 638.205C645.1 637.899 644.479 638.025 644.174 638.485L645.84 639.591ZM646.342 635.189C646.04 635.652 646.171 636.271 646.633 636.573C647.096 636.875 647.715 636.744 648.017 636.282L646.342 635.189ZM650.175 632.944C650.473 632.479 650.338 631.861 649.873 631.563C649.408 631.265 648.789 631.4 648.491 631.865L650.175 632.944ZM650.622 628.512C650.327 628.979 650.467 629.597 650.935 629.891C651.402 630.185 652.02 630.045 652.314 629.578L650.622 628.512ZM654.433 626.182C654.724 625.713 654.579 625.096 654.109 624.806C653.64 624.515 653.023 624.66 652.733 625.13L654.433 626.182ZM654.824 621.719C654.538 622.191 654.688 622.806 655.16 623.093C655.631 623.38 656.247 623.23 656.533 622.758L654.824 621.719ZM658.614 619.304C658.897 618.83 658.742 618.216 658.268 617.933C657.793 617.65 657.18 617.805 656.896 618.279L658.614 619.304ZM658.949 614.81C658.669 615.286 658.829 615.899 659.306 616.178C659.782 616.457 660.395 616.298 660.674 615.821L658.949 614.81ZM662.714 612.309C662.99 611.83 662.825 611.219 662.347 610.943C661.868 610.668 661.257 610.832 660.981 611.311L662.714 612.309ZM662.973 607.819C662.701 608.3 662.87 608.91 663.351 609.182C663.832 609.454 664.442 609.284 664.714 608.803L662.973 607.819ZM666.637 605.37C666.905 604.887 666.731 604.279 666.248 604.01C665.765 603.742 665.156 603.917 664.888 604.399L666.637 605.37ZM666.784 600.952C666.52 601.437 666.699 602.044 667.184 602.309C667.669 602.573 668.276 602.394 668.541 601.909L666.784 600.952ZM670.425 598.421C670.686 597.934 670.502 597.328 670.015 597.068C669.528 596.807 668.922 596.99 668.662 597.477L670.425 598.421ZM670.52 593.975C670.263 594.464 670.451 595.068 670.94 595.325C671.428 595.582 672.033 595.394 672.29 594.905L670.52 593.975ZM674.135 591.361C674.388 590.871 674.196 590.267 673.705 590.014C673.214 589.761 672.611 589.954 672.358 590.444L674.135 591.361ZM674.176 586.886C673.927 587.379 674.124 587.981 674.617 588.23C675.11 588.479 675.711 588.282 675.961 587.79L674.176 586.886ZM677.766 584.19C678.012 583.695 677.81 583.095 677.315 582.849C676.821 582.604 676.221 582.805 675.975 583.3L677.766 584.19ZM677.753 579.685C677.511 580.182 677.718 580.78 678.214 581.022C678.711 581.264 679.309 581.058 679.551 580.562L677.753 579.685ZM681.316 576.905C681.554 576.407 681.343 575.81 680.845 575.572C680.347 575.334 679.75 575.544 679.512 576.043L681.316 576.905ZM681.249 572.372C681.015 572.872 681.23 573.467 681.73 573.701C682.231 573.936 682.826 573.72 683.06 573.22L681.249 572.372ZM684.736 569.612C684.967 569.11 684.747 568.516 684.245 568.285C683.743 568.054 683.149 568.274 682.919 568.776L684.736 569.612ZM684.542 565.211C684.315 565.715 684.539 566.307 685.043 566.534C685.546 566.761 686.138 566.537 686.365 566.034L684.542 565.211ZM687.976 562.43C688.199 561.925 687.971 561.334 687.466 561.111C686.961 560.887 686.37 561.116 686.147 561.621L687.976 562.43ZM687.732 558.004C687.512 558.51 687.744 559.099 688.251 559.319C688.757 559.539 689.346 559.306 689.566 558.8L687.732 558.004ZM691.137 555.143C691.353 554.635 691.117 554.048 690.609 553.831C690.1 553.615 689.513 553.852 689.297 554.36L691.137 555.143ZM690.843 550.69C690.63 551.2 690.871 551.785 691.381 551.998C691.891 552.21 692.476 551.97 692.689 551.46L690.843 550.69ZM694.22 547.75C694.429 547.239 694.184 546.655 693.673 546.446C693.161 546.237 692.578 546.482 692.369 546.993L694.22 547.75ZM693.875 543.27C693.669 543.783 693.919 544.365 694.431 544.57C694.944 544.775 695.526 544.526 695.731 544.013L693.875 543.27ZM697.222 540.25C697.424 539.736 697.171 539.155 696.656 538.954C696.142 538.752 695.562 539.006 695.36 539.52L697.222 540.25ZM696.826 535.743C696.628 536.258 696.886 536.837 697.401 537.035C697.917 537.233 698.495 536.975 698.693 536.459L696.826 535.743ZM700.143 532.642C700.338 532.125 700.076 531.549 699.559 531.354C699.042 531.16 698.465 531.421 698.271 531.938L700.143 532.642ZM699.659 528.206C699.468 528.725 699.734 529.3 700.252 529.49C700.771 529.681 701.345 529.416 701.536 528.897L699.659 528.206ZM702.878 525.214C703.065 524.694 702.796 524.121 702.276 523.934C701.757 523.746 701.183 524.016 700.996 524.535L702.878 525.214ZM702.314 520.84C702.131 521.36 702.404 521.932 702.925 522.115C703.445 522.299 704.017 522.026 704.2 521.505L702.314 520.84ZM705.504 517.772C705.684 517.25 705.407 516.681 704.885 516.5C704.363 516.32 703.794 516.597 703.613 517.119L705.504 517.772ZM704.893 513.374C704.716 513.897 704.997 514.464 705.52 514.641C706.044 514.818 706.611 514.537 706.788 514.014L704.893 513.374ZM708.053 510.231C708.226 509.707 707.942 509.141 707.417 508.968C706.893 508.794 706.327 509.079 706.154 509.603L708.053 510.231ZM707.395 505.808C707.225 506.333 707.513 506.897 708.039 507.067C708.564 507.237 709.128 506.948 709.298 506.423L707.395 505.808ZM710.523 502.59C710.69 502.063 710.398 501.501 709.871 501.335C709.345 501.168 708.783 501.46 708.616 501.987L710.523 502.59ZM709.818 498.141C709.655 498.669 709.951 499.229 710.478 499.392C711.006 499.555 711.566 499.259 711.729 498.731L709.818 498.141ZM712.915 494.848C713.074 494.319 712.775 493.761 712.246 493.601C711.717 493.442 711.159 493.741 711 494.27L712.915 494.848ZM712.162 490.373C712.006 490.903 712.309 491.459 712.838 491.615C713.368 491.771 713.924 491.468 714.08 490.939L712.162 490.373ZM715.226 487.004C715.378 486.473 715.072 485.919 714.541 485.767C714.01 485.614 713.456 485.921 713.303 486.451L715.226 487.004ZM714.374 482.683C714.225 483.215 714.535 483.767 715.067 483.917C715.598 484.066 716.151 483.756 716.3 483.224L714.374 482.683ZM717.348 479.45C717.494 478.917 717.181 478.367 716.648 478.221C716.115 478.074 715.565 478.388 715.419 478.92L717.348 479.45ZM716.445 475.134C716.302 475.668 716.619 476.216 717.153 476.359C717.686 476.502 718.234 476.185 718.377 475.652L716.445 475.134ZM719.388 471.831C719.528 471.296 719.208 470.75 718.673 470.61C718.139 470.471 717.593 470.791 717.453 471.325L719.388 471.831ZM718.442 467.493C718.306 468.028 718.629 468.572 719.164 468.709C719.699 468.845 720.244 468.522 720.38 467.987L718.442 467.493ZM721.353 464.119C721.486 463.583 721.16 463.041 720.624 462.908C720.088 462.774 719.545 463.101 719.412 463.637L721.353 464.119ZM720.363 459.758C720.233 460.295 720.563 460.835 721.1 460.965C721.637 461.095 722.177 460.765 722.307 460.228L720.363 459.758ZM723.242 456.314C723.369 455.777 723.036 455.238 722.498 455.111C721.961 454.985 721.422 455.318 721.296 455.855L723.242 456.314ZM722.209 451.929C722.085 452.468 722.422 453.004 722.96 453.128C723.498 453.251 724.035 452.915 724.158 452.377L722.209 451.929ZM725.055 448.416C725.175 447.877 724.836 447.342 724.297 447.222C723.758 447.101 723.223 447.441 723.103 447.98L725.055 448.416ZM723.977 444.007C723.86 444.546 724.203 445.079 724.742 445.196C725.282 445.313 725.815 444.97 725.932 444.431L723.977 444.007ZM726.789 440.422C726.903 439.882 726.558 439.352 726.017 439.238C725.477 439.124 724.946 439.469 724.832 440.01L726.789 440.422ZM725.642 436.113C725.532 436.654 725.88 437.183 726.421 437.294C726.962 437.404 727.491 437.056 727.602 436.515L725.642 436.113ZM728.375 432.688C728.483 432.146 728.131 431.619 727.59 431.512C727.048 431.404 726.521 431.755 726.414 432.297L728.375 432.688ZM727.167 428.459C727.062 429.002 727.417 429.526 727.959 429.631C728.501 429.736 729.026 429.382 729.131 428.839L727.167 428.459ZM729.868 424.97C729.97 424.427 729.613 423.904 729.07 423.802C728.527 423.7 728.005 424.058 727.903 424.6L729.868 424.97ZM728.621 420.72C728.522 421.263 728.882 421.784 729.425 421.883C729.969 421.982 730.489 421.622 730.588 421.079L728.621 420.72ZM731.29 417.166C731.386 416.622 731.023 416.103 730.479 416.007C729.935 415.911 729.417 416.274 729.321 416.818L731.29 417.166ZM730.003 412.895C729.909 413.439 730.275 413.956 730.82 414.049C731.364 414.142 731.881 413.776 731.974 413.232L730.003 412.895ZM732.639 409.276C732.73 408.732 732.361 408.217 731.816 408.127C731.271 408.036 730.756 408.405 730.666 408.95L732.639 409.276ZM731.312 404.983C731.225 405.529 731.596 406.041 732.141 406.129C732.687 406.216 733.199 405.845 733.287 405.299L731.312 404.983ZM733.916 401.3C734 400.755 733.626 400.244 733.08 400.159C732.534 400.075 732.023 400.449 731.939 400.995L733.916 401.3ZM732.548 396.985C732.466 397.531 732.843 398.04 733.389 398.121C733.936 398.203 734.445 397.826 734.526 397.28L732.548 396.985ZM735.118 393.237C735.196 392.691 734.817 392.184 734.27 392.105C733.724 392.027 733.217 392.406 733.138 392.953L735.118 393.237ZM733.71 388.899C733.634 389.446 734.016 389.951 734.563 390.027C735.11 390.102 735.615 389.72 735.691 389.173L733.71 388.899ZM34.8875 885C34.7758 885.994 34.7758 885.994 34.7758 885.994C34.7758 885.994 34.7759 885.994 34.7759 885.994C34.7759 885.994 34.776 885.994 34.776 885.994C34.7762 885.994 34.7763 885.994 34.7765 885.994C34.7769 885.994 34.7775 885.994 34.7782 885.994C34.7796 885.994 34.7817 885.994 34.7844 885.995C34.7898 885.995 34.7978 885.996 34.8083 885.997C34.8293 886 34.8605 886.003 34.9018 886.008C34.9844 886.017 35.1073 886.03 35.2699 886.047C35.5952 886.081 36.0795 886.13 36.7177 886.192L36.9105 884.201C36.2776 884.14 35.7985 884.091 35.4783 884.058C35.3181 884.041 35.1977 884.028 35.1177 884.019C35.0776 884.015 35.0477 884.012 35.0279 884.009C35.018 884.008 35.0107 884.008 35.0059 884.007C35.0035 884.007 35.0017 884.007 35.0006 884.006C35 884.006 34.9996 884.006 34.9994 884.006C34.9992 884.006 34.9991 884.006 34.9991 884.006C34.9991 884.006 34.9991 884.006 34.9991 884.006C34.9991 884.006 34.9991 884.006 34.9991 884.006C34.9991 884.006 34.9991 884.006 34.8875 885ZM40.5069 886.535C41.6466 886.631 42.9499 886.737 44.4108 886.848L44.5621 884.854C43.1073 884.743 41.8099 884.638 40.676 884.542L40.5069 886.535ZM48.5305 887.144C49.7776 887.228 51.1042 887.314 52.5081 887.4L52.6299 885.404C51.2307 885.318 49.9086 885.233 48.666 885.148L48.5305 887.144ZM56.395 887.625C57.7495 887.699 59.1624 887.772 60.6323 887.844L60.7291 885.846C59.2635 885.775 57.8548 885.702 56.5044 885.628L56.395 887.625ZM64.5224 888.021C65.7824 888.075 67.0784 888.128 68.4096 888.178L68.4847 886.179C67.1571 886.129 65.8646 886.077 64.6082 886.023L64.5224 888.021ZM72.5081 888.32C73.8709 888.364 75.2662 888.406 76.6935 888.444L76.747 886.444C75.3234 886.406 73.9316 886.365 72.5724 886.321L72.5081 888.32ZM80.4941 888.536C81.7849 888.565 83.0993 888.591 84.4369 888.614L84.4713 886.614C83.1369 886.591 81.8257 886.565 80.5381 886.537L80.4941 888.536ZM88.519 888.674C89.9026 888.691 91.3089 888.704 92.7375 888.715L92.7519 886.715C91.3267 886.704 89.9238 886.691 88.5435 886.674L88.519 888.674ZM96.5651 888.734C97.8519 888.737 99.1554 888.738 100.475 888.736L100.472 886.736C99.1549 886.738 97.8544 886.737 96.5706 886.734L96.5651 888.734ZM104.484 888.719C105.837 888.711 107.206 888.699 108.59 888.684L108.568 886.684C107.187 886.699 105.821 886.711 104.472 886.719L104.484 888.719ZM112.722 888.628C113.994 888.608 115.279 888.585 116.576 888.559L116.536 886.56C115.242 886.586 113.96 886.609 112.69 886.628L112.722 888.628ZM120.504 888.472C121.825 888.44 123.159 888.404 124.504 888.365L124.447 886.366C123.104 886.405 121.774 886.44 120.455 886.473L120.504 888.472ZM128.576 888.239C129.945 888.193 131.325 888.144 132.717 888.091L132.641 886.092C131.252 886.145 129.875 886.194 128.509 886.24L128.576 888.239ZM136.634 887.934C137.928 887.879 139.231 887.821 140.544 887.76L140.451 885.762C139.141 885.823 137.841 885.881 136.55 885.936L136.634 887.934ZM144.508 887.567C145.839 887.499 147.178 887.428 148.527 887.353L148.416 885.356C147.071 885.431 145.734 885.502 144.406 885.569L144.508 887.567ZM152.598 887.119C153.964 887.037 155.338 886.952 156.721 886.863L156.593 884.867C155.213 884.956 153.841 885.041 152.479 885.122L152.598 887.119ZM160.604 886.604C161.904 886.515 163.211 886.423 164.525 886.327L164.379 884.332C163.068 884.428 161.764 884.52 160.467 884.609L160.604 886.604ZM168.488 886.029C169.816 885.926 171.151 885.82 172.492 885.71L172.329 883.717C170.991 883.826 169.659 883.932 168.334 884.035L168.488 886.029ZM176.537 885.37C177.891 885.253 179.253 885.132 180.621 885.008L180.44 883.016C179.075 883.14 177.716 883.261 176.365 883.377L176.537 885.37ZM184.57 884.64C185.868 884.517 187.171 884.39 188.48 884.259L188.282 882.269C186.976 882.399 185.675 882.526 184.38 882.649L184.57 884.64ZM192.424 883.857C193.743 883.719 195.069 883.578 196.399 883.434L196.183 881.446C194.855 881.59 193.533 881.731 192.216 881.868L192.424 883.857ZM200.405 882.989C201.746 882.837 203.092 882.682 204.443 882.523L204.208 880.536C202.861 880.695 201.518 880.85 200.18 881.002L200.405 882.989ZM208.503 882.034C209.795 881.876 211.092 881.714 212.393 881.549L212.141 879.565C210.843 879.73 209.549 879.891 208.26 880.049L208.503 882.034ZM216.308 881.042C217.618 880.87 218.931 880.694 220.249 880.514L219.978 878.532C218.664 878.712 217.353 878.887 216.047 879.059L216.308 881.042ZM224.213 879.964C225.539 879.778 226.868 879.587 228.202 879.393L227.913 877.414C226.583 877.607 225.257 877.798 223.934 877.984L224.213 879.964ZM232.214 878.798C233.555 878.597 234.899 878.391 236.247 878.181L235.94 876.205C234.595 876.414 233.254 876.619 231.916 876.821L232.214 878.798ZM240.131 877.569C241.429 877.361 242.73 877.15 244.034 876.935L243.709 874.961C242.408 875.176 241.11 875.387 239.815 875.594L240.131 877.569ZM247.956 876.278C249.267 876.056 250.58 875.83 251.897 875.6L251.553 873.63C250.24 873.859 248.929 874.085 247.622 874.306L247.956 876.278ZM255.856 874.899C257.178 874.661 258.504 874.42 259.832 874.175L259.469 872.208C258.144 872.452 256.822 872.693 255.502 872.93L255.856 874.899ZM263.825 873.427C265.127 873.18 266.431 872.93 267.738 872.675L267.356 870.712C266.052 870.966 264.751 871.216 263.452 871.462L263.825 873.427ZM271.618 871.91C272.914 871.651 274.212 871.388 275.512 871.122L275.111 869.162C273.814 869.428 272.519 869.69 271.226 869.948L271.618 871.91ZM279.42 870.311C280.725 870.037 282.032 869.759 283.341 869.477L282.921 867.522C281.615 867.803 280.311 868.08 279.009 868.354L279.42 870.311ZM287.275 868.62C288.589 868.33 289.904 868.037 291.221 867.739L290.781 865.788C289.467 866.085 288.155 866.378 286.844 866.667L287.275 868.62ZM295.173 866.836C296.454 866.539 297.737 866.239 299.021 865.935L298.561 863.989C297.28 864.292 296 864.592 294.722 864.887L295.173 866.836ZM302.88 865.012C304.168 864.7 305.457 864.384 306.748 864.065L306.268 862.123C304.98 862.442 303.694 862.757 302.409 863.068L302.88 865.012ZM310.626 863.094C311.92 862.766 313.215 862.435 314.512 862.099L314.011 860.163C312.718 860.498 311.426 860.828 310.135 861.155L310.626 863.094ZM318.407 861.081C319.707 860.737 321.008 860.389 322.31 860.037L321.788 858.107C320.489 858.457 319.192 858.804 317.896 859.147L318.407 861.081ZM326.2 858.975C327.471 858.624 328.743 858.269 330.016 857.911L329.474 855.986C328.204 856.343 326.935 856.697 325.668 857.047L326.2 858.975ZM333.839 856.822C335.114 856.456 336.39 856.085 337.667 855.71L337.104 853.791C335.83 854.165 334.557 854.535 333.286 854.9L333.839 856.822ZM341.501 854.573C342.78 854.19 344.059 853.803 345.34 853.412L344.755 851.499C343.478 851.889 342.202 852.275 340.927 852.657L341.501 854.573ZM349.184 852.225C350.465 851.825 351.748 851.421 353.031 851.013L352.425 849.107C351.146 849.514 349.867 849.917 348.588 850.316L349.184 852.225ZM356.871 849.78C358.128 849.372 359.384 848.961 360.641 848.545L360.014 846.646C358.76 847.061 357.507 847.471 356.254 847.878L356.871 849.78ZM364.414 847.286C365.672 846.862 366.931 846.434 368.19 846.001L367.54 844.11C366.285 844.541 365.03 844.968 363.776 845.391L364.414 847.286ZM371.967 844.692C373.227 844.251 374.487 843.806 375.747 843.356L375.075 841.473C373.819 841.921 372.563 842.364 371.307 842.804L371.967 844.692ZM379.528 841.995C380.788 841.537 382.049 841.075 383.31 840.608L382.615 838.733C381.358 839.198 380.102 839.659 378.845 840.116L379.528 841.995ZM387.092 839.195C388.331 838.728 389.57 838.256 390.809 837.781L390.093 835.914C388.857 836.388 387.622 836.858 386.387 837.324L387.092 839.195ZM394.519 836.343C395.756 835.86 396.992 835.372 398.229 834.88L397.489 833.022C396.257 833.512 395.024 833.999 393.791 834.481L394.519 836.343ZM401.937 833.391C403.173 832.89 404.409 832.385 405.645 831.875L404.882 830.026C403.65 830.534 402.418 831.038 401.186 831.537L401.937 833.391ZM409.35 830.333C410.585 829.814 411.82 829.291 413.054 828.764L412.268 826.925C411.038 827.451 409.807 827.972 408.576 828.489L409.35 830.333ZM416.756 827.168C417.979 826.636 419.201 826.1 420.423 825.559L419.613 823.73C418.395 824.269 417.177 824.804 415.958 825.334L416.756 827.168ZM424.055 823.938C425.265 823.393 426.475 822.843 427.684 822.289L426.851 820.471C425.646 821.023 424.44 821.571 423.234 822.114L424.055 823.938ZM431.31 820.614C432.517 820.051 433.725 819.484 434.931 818.912L434.074 817.105C432.872 817.675 431.669 818.24 430.465 818.801L431.31 820.614ZM438.548 817.182C439.753 816.601 440.957 816.016 442.161 815.425L441.28 813.63C440.081 814.218 438.88 814.802 437.68 815.381L438.548 817.182ZM445.768 813.641C446.97 813.041 448.171 812.437 449.371 811.828L448.466 810.045C447.27 810.651 446.073 811.254 444.875 811.851L445.768 813.641ZM452.913 810.016C454.091 809.407 455.269 808.795 456.446 808.177L455.516 806.406C454.344 807.021 453.17 807.632 451.996 808.238L452.913 810.016ZM459.972 806.311C461.147 805.685 462.32 805.053 463.493 804.418L462.539 802.659C461.371 803.293 460.201 803.922 459.031 804.547L459.972 806.311ZM467.006 802.496C468.176 801.85 469.345 801.2 470.513 800.546L469.534 798.801C468.371 799.454 467.206 800.101 466.04 800.744L467.006 802.496ZM474.012 798.567C475.177 797.903 476.341 797.234 477.503 796.56L476.5 794.83C475.342 795.501 474.182 796.168 473.021 796.83L474.012 798.567ZM480.972 794.533C482.113 793.86 483.253 793.183 484.392 792.501L483.364 790.785C482.23 791.465 481.094 792.139 479.957 792.809L480.972 794.533ZM487.803 790.441C488.938 789.75 490.072 789.053 491.205 788.353L490.152 786.652C489.024 787.35 487.894 788.044 486.763 788.733L487.803 790.441ZM494.598 786.236C495.728 785.525 496.856 784.81 497.982 784.09L496.905 782.405C495.782 783.122 494.659 783.835 493.533 784.543L494.598 786.236ZM501.356 781.915C502.479 781.185 503.6 780.45 504.72 779.71L503.618 778.042C502.502 778.779 501.385 779.51 500.266 780.238L501.356 781.915ZM508.074 777.477C509.182 776.733 510.289 775.984 511.393 775.23L510.266 773.578C509.165 774.329 508.063 775.075 506.959 775.816L508.074 777.477ZM514.67 772.975C515.76 772.219 516.849 771.458 517.936 770.692L516.784 769.057C515.701 769.82 514.617 770.579 513.53 771.332L514.67 772.975ZM521.19 768.38C522.273 767.604 523.354 766.824 524.433 766.038L523.256 764.421C522.181 765.204 521.105 765.981 520.026 766.754L521.19 768.38ZM527.665 763.667C528.74 762.872 529.813 762.071 530.884 761.266L529.682 759.667C528.615 760.47 527.546 761.267 526.475 762.059L527.665 763.667ZM534.091 758.835C535.158 758.02 536.223 757.199 537.285 756.374L536.058 754.795C535 755.617 533.939 756.434 532.877 757.246L534.091 758.835ZM540.441 753.903C541.48 753.083 542.516 752.259 543.551 751.429L542.299 749.869C541.269 750.695 540.236 751.517 539.202 752.333L540.441 753.903ZM546.647 748.925C547.677 748.085 548.705 747.241 549.731 746.391L548.455 744.851C547.433 745.697 546.41 746.538 545.384 747.375L546.647 748.925ZM552.8 743.828C553.821 742.968 554.84 742.104 555.856 741.234L554.556 739.715C553.544 740.581 552.529 741.442 551.512 742.298L552.8 743.828ZM558.898 738.611C559.91 737.731 560.919 736.847 561.925 735.957L560.601 734.458C559.598 735.345 558.593 736.226 557.586 737.102L558.898 738.611ZM564.938 733.273C565.933 732.378 566.927 731.479 567.917 730.574L566.569 729.097C565.582 729.998 564.593 730.894 563.601 731.785L564.938 733.273ZM570.837 727.887C571.807 726.986 572.776 726.081 573.741 725.17L572.369 723.715C571.407 724.622 570.443 725.524 569.476 726.421L570.837 727.887ZM576.63 722.423C577.591 721.503 578.549 720.577 579.504 719.646L578.109 718.214C577.157 719.141 576.203 720.062 575.247 720.979L576.63 722.423ZM582.363 716.839C583.313 715.899 584.26 714.953 585.205 714.002L583.786 712.592C582.845 713.539 581.902 714.481 580.955 715.418L582.363 716.839ZM588.031 711.134C588.97 710.173 589.907 709.207 590.84 708.236L589.398 706.85C588.469 707.817 587.536 708.779 586.6 709.736L588.031 711.134ZM593.633 705.306C594.54 704.348 595.443 703.384 596.345 702.415L594.88 701.053C593.983 702.018 593.083 702.977 592.18 703.932L593.633 705.306ZM599.036 699.499C599.93 698.521 600.821 697.539 601.71 696.552L600.223 695.214C599.339 696.197 598.451 697.175 597.56 698.148L599.036 699.499ZM604.367 693.576C605.25 692.579 606.13 691.577 607.007 690.57L605.499 689.256C604.626 690.259 603.749 691.257 602.87 692.25L604.367 693.576ZM609.63 687.534C610.501 686.517 611.37 685.494 612.235 684.467L610.706 683.178C609.844 684.202 608.979 685.22 608.111 686.233L609.63 687.534ZM614.822 681.37C615.682 680.332 616.538 679.29 617.392 678.242L615.841 676.979C614.991 678.023 614.138 679.061 613.282 680.094L614.822 681.37ZM619.916 675.116C620.739 674.089 621.559 673.056 622.376 672.019L620.804 670.782C619.991 671.815 619.175 672.843 618.355 673.866L619.916 675.116ZM624.817 668.894C625.628 667.847 626.436 666.795 627.241 665.738L625.65 664.526C624.848 665.579 624.043 666.626 623.236 667.669L624.817 668.894ZM629.646 662.553C630.444 661.487 631.24 660.415 632.033 659.339L630.422 658.153C629.633 659.225 628.84 660.292 628.045 661.355L629.646 662.553ZM634.401 656.095C635.187 655.008 635.97 653.917 636.75 652.82L635.12 651.661C634.343 652.753 633.563 653.84 632.78 654.922L634.401 656.095ZM639.08 649.516C639.853 648.41 640.624 647.298 641.391 646.181L639.742 645.049C638.978 646.161 638.211 647.268 637.441 648.37L639.08 649.516ZM643.645 642.871C644.38 641.782 645.111 640.689 645.84 639.591L644.174 638.485C643.448 639.579 642.719 640.668 641.987 641.752L643.645 642.871ZM648.017 636.282C648.74 635.174 649.459 634.062 650.175 632.944L648.491 631.865C647.778 632.978 647.061 634.086 646.342 635.189L648.017 636.282ZM652.314 629.578C653.024 628.451 653.73 627.319 654.433 626.182L652.733 625.13C652.032 626.262 651.328 627.389 650.622 628.512L652.314 629.578ZM656.533 622.758C657.23 621.611 657.924 620.46 658.614 619.304L656.896 618.279C656.209 619.43 655.518 620.577 654.824 621.719L656.533 622.758ZM660.674 615.821C661.358 614.655 662.038 613.484 662.714 612.309L660.981 611.311C660.307 612.482 659.63 613.648 658.949 614.81L660.674 615.821ZM664.714 608.803C665.358 607.663 665.999 606.519 666.637 605.37L664.888 604.399C664.253 605.544 663.614 606.684 662.973 607.819L664.714 608.803ZM668.541 601.909C669.172 600.751 669.8 599.589 670.425 598.421L668.662 597.477C668.039 598.64 667.413 599.799 666.784 600.952L668.541 601.909ZM672.29 594.905C672.908 593.729 673.523 592.547 674.135 591.361L672.358 590.444C671.748 591.626 671.136 592.803 670.52 593.975L672.29 594.905ZM675.961 587.79C676.566 586.594 677.168 585.394 677.766 584.19L675.975 583.3C675.379 584.5 674.779 585.695 674.176 586.886L675.961 587.79ZM679.551 580.562C680.143 579.348 680.731 578.129 681.316 576.905L679.512 576.043C678.929 577.262 678.343 578.476 677.753 579.685L679.551 580.562ZM683.06 573.22C683.622 572.022 684.181 570.819 684.736 569.612L682.919 568.776C682.366 569.979 681.809 571.178 681.249 572.372L683.06 573.22ZM686.365 566.034C686.905 564.837 687.442 563.636 687.976 562.43L686.147 561.621C685.615 562.822 685.08 564.019 684.542 565.211L686.365 566.034ZM689.566 558.8C690.093 557.585 690.617 556.366 691.137 555.143L689.297 554.36C688.778 555.579 688.257 556.794 687.732 558.004L689.566 558.8ZM692.689 551.46C693.202 550.228 693.713 548.991 694.22 547.75L692.369 546.993C691.863 548.23 691.355 549.462 690.843 550.69L692.689 551.46ZM695.731 544.013C696.232 542.763 696.729 541.509 697.222 540.25L695.36 539.52C694.869 540.774 694.373 542.024 693.875 543.27L695.731 544.013ZM698.693 536.459C699.18 535.192 699.663 533.919 700.143 532.642L698.271 531.938C697.793 533.211 697.311 534.479 696.826 535.743L698.693 536.459ZM701.536 528.897C701.986 527.673 702.434 526.446 702.878 525.214L700.996 524.535C700.554 525.763 700.108 526.987 699.659 528.206L701.536 528.897ZM704.2 521.505C704.638 520.265 705.073 519.02 705.504 517.772L703.613 517.119C703.184 518.363 702.751 519.604 702.314 520.84L704.2 521.505ZM706.788 514.014C707.213 512.757 707.634 511.496 708.053 510.231L706.154 509.603C705.737 510.864 705.317 512.121 704.893 513.374L706.788 514.014ZM709.298 506.423C709.71 505.149 710.118 503.872 710.523 502.59L708.616 501.987C708.213 503.265 707.805 504.538 707.395 505.808L709.298 506.423ZM711.729 498.731C712.128 497.441 712.523 496.146 712.915 494.848L711 494.27C710.609 495.564 710.215 496.855 709.818 498.141L711.729 498.731ZM714.08 490.939C714.465 489.631 714.847 488.32 715.226 487.004L713.303 486.451C712.926 487.763 712.546 489.07 712.162 490.373L714.08 490.939ZM716.3 483.224C716.652 481.97 717.002 480.712 717.348 479.45L715.419 478.92C715.074 480.179 714.726 481.433 714.374 482.683L716.3 483.224ZM718.377 475.652C718.717 474.382 719.054 473.108 719.388 471.831L717.453 471.325C717.12 472.599 716.784 473.868 716.445 475.134L718.377 475.652ZM720.38 467.987C720.707 466.701 721.032 465.412 721.353 464.119L719.412 463.637C719.092 464.926 718.768 466.211 718.442 467.493L720.38 467.987ZM722.307 460.228C722.622 458.928 722.934 457.623 723.242 456.314L721.296 455.855C720.988 457.16 720.677 458.461 720.363 459.758L722.307 460.228ZM724.158 452.377C724.46 451.06 724.759 449.74 725.055 448.416L723.103 447.98C722.808 449.3 722.51 450.617 722.209 451.929L724.158 452.377ZM725.932 444.431C726.221 443.099 726.507 441.762 726.789 440.422L724.832 440.01C724.551 441.346 724.266 442.678 723.977 444.007L725.932 444.431ZM727.602 436.515C727.862 435.243 728.12 433.967 728.375 432.688L726.414 432.297C726.159 433.573 725.902 434.845 725.642 436.113L727.602 436.515ZM729.131 428.839C729.379 427.553 729.625 426.263 729.868 424.97L727.903 424.6C727.66 425.89 727.415 427.177 727.167 428.459L729.131 428.839ZM730.588 421.079C730.825 419.778 731.059 418.474 731.29 417.166L729.321 416.818C729.09 418.122 728.857 419.423 728.621 420.72L730.588 421.079ZM731.974 413.232C732.199 411.917 732.421 410.599 732.639 409.276L730.666 408.95C730.448 410.268 730.227 411.583 730.003 412.895L731.974 413.232ZM733.287 405.299C733.499 403.97 733.709 402.637 733.916 401.3L731.939 400.995C731.733 402.328 731.524 403.657 731.312 404.983L733.287 405.299ZM734.526 397.28C734.726 395.936 734.924 394.588 735.118 393.237L733.138 392.953C732.945 394.3 732.748 395.644 732.548 396.985L734.526 397.28ZM735.691 389.173C735.785 388.494 735.878 387.815 735.97 387.134L733.988 386.866C733.896 387.544 733.804 388.222 733.71 388.899L735.691 389.173Z" fill="url(#paint1_linear)" fill-opacity="0.2"/>
    <defs>
        <linearGradient id="paint0_linear" x1="1167" y1="1.00003" x2="0.999977" y2="875" gradientUnits="userSpaceOnUse">
            <stop stop-color="#CB2D3E"/>
            <stop offset="1" stop-color="#EF473A"/>
        </linearGradient>
        <linearGradient id="paint1_linear" x1="384.933" y1="387" x2="384.933" y2="887.737" gradientUnits="userSpaceOnUse">
            <stop stop-color="#CB2D3E"/>
            <stop offset="1" stop-color="#EF473A"/>
        </linearGradient>
    </defs>
</svg>
